HIERARCHY
ROOT Hips
{
	OFFSET 0.000000 71.427986 0.000000
	CHANNELS 6 Xposition Yposition Zposition Xrotation Yrotation Zrotation
	JOINT Pelvis
	{
		OFFSET 0.000000 0.000000 0.000000
		CHANNELS 3 Xrotation Yrotation Zrotation
		JOINT LeftUpLeg
		{
			OFFSET 6.797100 -2.508499 -1.318700
			CHANNELS 3 Xrotation Yrotation Zrotation
			JOINT LeftLeg
			{
				OFFSET 0.069008 -29.241863 0.690200
				CHANNELS 3 Xrotation Yrotation Zrotation
				JOINT LeftFoot
				{
					OFFSET -0.069008 -29.568123 -0.266800
					CHANNELS 3 Xrotation Yrotation Zrotation
					JOINT LeftToeBase
					{
						OFFSET 3.145500 -8.631000 16.059900
						CHANNELS 3 Xrotation Yrotation Zrotation
						End Site
						{
							OFFSET 0.000000 18.501587 0.000000
						}
					}
				}
			}
			JOINT Left_ShortSleeve
			{
				OFFSET 0.265923 -10.480953 1.153800
				CHANNELS 3 Xrotation Yrotation Zrotation
				End Site
				{
					OFFSET 1.725763 19.823879 0.000000
				}
			}
		}
		JOINT RightUpLeg
		{
			OFFSET -6.797100 -2.508499 -1.318700
			CHANNELS 3 Xrotation Yrotation Zrotation
			JOINT RightLeg
			{
				OFFSET -0.082453 -29.241932 0.688000
				CHANNELS 3 Xrotation Yrotation Zrotation
				JOINT RightFoot
				{
					OFFSET 0.082453 -29.568058 -0.264600
					CHANNELS 3 Xrotation Yrotation Zrotation
					JOINT RightToeBase
					{
						OFFSET -3.115300 -8.682800 16.113400
						CHANNELS 3 Xrotation Yrotation Zrotation
						End Site
						{
							OFFSET 0.000000 18.567114 0.000000
						}
					}
				}
			}
			JOINT Right_ShortSleeve
			{
				OFFSET -0.265923 -10.480953 1.153800
				CHANNELS 3 Xrotation Yrotation Zrotation
				End Site
				{
					OFFSET -1.725766 19.823910 0.000000
				}
			}
		}
	}
	JOINT Spine
	{
		OFFSET 0.000000 13.368103 0.470500
		CHANNELS 3 Xrotation Yrotation Zrotation
		JOINT Spine1
		{
			OFFSET 0.147000 13.837402 0.538800
			CHANNELS 3 Xrotation Yrotation Zrotation
			JOINT Spine2
			{
				OFFSET 0.168000 16.242897 -1.435500
				CHANNELS 3 Xrotation Yrotation Zrotation
				JOINT Neck
				{
					OFFSET 0.217200 18.631500 -1.679100
					CHANNELS 3 Xrotation Yrotation Zrotation
					JOINT Head
					{
						OFFSET 0.000000 6.599396 1.385900
						CHANNELS 3 Xrotation Yrotation Zrotation
						JOINT Hat
						{
							OFFSET -0.532200 27.220596 -10.096100
							CHANNELS 3 Xrotation Yrotation Zrotation
							End Site
							{
								OFFSET 0.000000 22.029861 0.000000
							}
						}
						JOINT HairD
						{
							OFFSET -10.777400 17.437393 -1.325900
							CHANNELS 3 Xrotation Yrotation Zrotation
							JOINT HairD1
							{
								OFFSET -3.290299 -11.051193 1.062200
								CHANNELS 3 Xrotation Yrotation Zrotation
								End Site
								{
									OFFSET 0.000000 11.579437 0.000000
								}
							}
						}
						JOINT HairB
						{
							OFFSET -10.777400 17.437393 1.467900
							CHANNELS 3 Xrotation Yrotation Zrotation
							JOINT HairB1
							{
								OFFSET -1.561200 -12.956299 3.590200
								CHANNELS 3 Xrotation Yrotation Zrotation
								End Site
								{
									OFFSET 0.000000 13.534866 0.000000
								}
							}
						}
						JOINT HairA
						{
							OFFSET 9.713100 17.437393 1.467900
							CHANNELS 3 Xrotation Yrotation Zrotation
							JOINT HairA1
							{
								OFFSET 1.561200 -12.956299 3.590200
								CHANNELS 3 Xrotation Yrotation Zrotation
								End Site
								{
									OFFSET 0.000000 13.534866 0.000000
								}
							}
						}
						JOINT HairC
						{
							OFFSET 9.713100 17.437393 -1.325900
							CHANNELS 3 Xrotation Yrotation Zrotation
							JOINT HairC1
							{
								OFFSET 3.290300 -11.051193 1.062200
								CHANNELS 3 Xrotation Yrotation Zrotation
								End Site
								{
									OFFSET 0.000000 11.579437 0.000000
								}
							}
						}
					}
				}
				JOINT LeftShoulder
				{
					OFFSET 5.101800 15.108002 -2.763700
					CHANNELS 3 Xrotation Yrotation Zrotation
					JOINT LeftArm
					{
						OFFSET 9.825497 2.506317 -1.597400
						CHANNELS 3 Xrotation Yrotation Zrotation
						JOINT LeftForeArm
						{
							OFFSET 21.966244 0.000000 0.000000
							CHANNELS 3 Xrotation Yrotation Zrotation
							JOINT LeftHand
							{
								OFFSET 33.879036 0.000000 0.000000
								CHANNELS 3 Xrotation Yrotation Zrotation
								JOINT LeftHandThumb1
								{
									OFFSET 6.715286 -2.359680 3.363841
									CHANNELS 3 Xrotation Yrotation Zrotation
									JOINT LeftHandThumb2
									{
										OFFSET 2.507072 -1.447464 1.447461
										CHANNELS 3 Xrotation Yrotation Zrotation
										JOINT LeftHandThumb3
										{
											OFFSET 2.898338 -1.673355 1.673357
											CHANNELS 3 Xrotation Yrotation Zrotation
											End Site
											{
												OFFSET -0.295959 3.727692 -0.131651
											}
										}
									}
								}
								JOINT LeftHandIndex1
								{
									OFFSET 14.190811 -0.254547 3.840278
									CHANNELS 3 Xrotation Yrotation Zrotation
									JOINT LeftHandIndex2
									{
										OFFSET 3.551727 0.000000 -0.000000
										CHANNELS 3 Xrotation Yrotation Zrotation
										JOINT LeftHandIndex3
										{
											OFFSET 2.894196 0.000000 0.000000
											CHANNELS 3 Xrotation Yrotation Zrotation
											End Site
											{
												OFFSET -1.000603 2.690872 0.366626
											}
										}
									}
								}
								JOINT LeftHandMiddle1
								{
									OFFSET 13.776489 0.000000 0.000000
									CHANNELS 3 Xrotation Yrotation Zrotation
									JOINT LeftHandMiddle2
									{
										OFFSET 3.438232 0.000000 0.000000
										CHANNELS 3 Xrotation Yrotation Zrotation
										JOINT LeftHandMiddle3
										{
											OFFSET 3.691551 0.000000 0.000000
											CHANNELS 3 Xrotation Yrotation Zrotation
											End Site
											{
												OFFSET -1.082298 3.499527 0.457670
											}
										}
									}
								}
								JOINT LeftHandRing1
								{
									OFFSET 13.966164 -0.268127 -3.067488
									CHANNELS 3 Xrotation Yrotation Zrotation
									JOINT LeftHandRing2
									{
										OFFSET 3.162567 0.000000 0.000000
										CHANNELS 3 Xrotation Yrotation Zrotation
										JOINT LeftHandRing3
										{
											OFFSET 3.324348 0.000000 0.000000
											CHANNELS 3 Xrotation Yrotation Zrotation
											End Site
											{
												OFFSET -0.861900 3.184998 0.405154
											}
										}
									}
								}
								JOINT LeftHandPinky1
								{
									OFFSET 13.131393 -0.168503 -5.746925
									CHANNELS 3 Xrotation Yrotation Zrotation
									JOINT LeftHandPinky2
									{
										OFFSET 2.849182 0.000000 0.000000
										CHANNELS 3 Xrotation Yrotation Zrotation
										JOINT LeftHandPinky3
										{
											OFFSET 2.805038 0.000000 0.000000
											CHANNELS 3 Xrotation Yrotation Zrotation
											End Site
											{
												OFFSET -0.882500 2.642609 0.325652
											}
										}
									}
								}
							}
							JOINT Left_Sleeve
							{
								OFFSET 6.592125 -0.646545 0.805568
								CHANNELS 3 Xrotation Yrotation Zrotation
								End Site
								{
									OFFSET -0.000179 20.275787 -0.000000
								}
							}
						}
					}
				}
				JOINT RightShoulder
				{
					OFFSET -5.731700 15.108002 -2.763700
					CHANNELS 3 Xrotation Yrotation Zrotation
					JOINT RightArm
					{
						OFFSET -9.825497 2.506317 -1.597400
						CHANNELS 3 Xrotation Yrotation Zrotation
						JOINT RightForeArm
						{
							OFFSET -21.966242 0.000000 0.000000
							CHANNELS 3 Xrotation Yrotation Zrotation
							JOINT RightHand
							{
								OFFSET -33.879032 0.000000 0.000000
								CHANNELS 3 Xrotation Yrotation Zrotation
								JOINT RightHandThumb1
								{
									OFFSET -6.715286 -2.359680 3.363841
									CHANNELS 3 Xrotation Yrotation Zrotation
									JOINT RightHandThumb2
									{
										OFFSET -2.507072 -1.447464 1.447461
										CHANNELS 3 Xrotation Yrotation Zrotation
										JOINT RightHandThumb3
										{
											OFFSET -2.898338 -1.673355 1.673357
											CHANNELS 3 Xrotation Yrotation Zrotation
											End Site
											{
												OFFSET 0.295959 3.727692 -0.131651
											}
										}
									}
								}
								JOINT RightHandIndex1
								{
									OFFSET -14.190811 -0.254547 3.840278
									CHANNELS 3 Xrotation Yrotation Zrotation
									JOINT RightHandIndex2
									{
										OFFSET -3.551727 0.000000 -0.000000
										CHANNELS 3 Xrotation Yrotation Zrotation
										JOINT RightHandIndex3
										{
											OFFSET -2.894196 0.000000 0.000000
											CHANNELS 3 Xrotation Yrotation Zrotation
											End Site
											{
												OFFSET 1.000603 2.690872 0.366626
											}
										}
									}
								}
								JOINT RightHandMiddle1
								{
									OFFSET -13.776489 0.000000 0.000000
									CHANNELS 3 Xrotation Yrotation Zrotation
									JOINT RightHandMiddle2
									{
										OFFSET -3.438232 0.000000 0.000000
										CHANNELS 3 Xrotation Yrotation Zrotation
										JOINT RightHandMiddle3
										{
											OFFSET -3.691551 0.000000 0.000000
											CHANNELS 3 Xrotation Yrotation Zrotation
											End Site
											{
												OFFSET 1.082298 3.499527 0.457670
											}
										}
									}
								}
								JOINT RightHandRing1
								{
									OFFSET -13.966164 -0.268127 -3.067488
									CHANNELS 3 Xrotation Yrotation Zrotation
									JOINT RightHandRing2
									{
										OFFSET -3.162567 0.000000 0.000000
										CHANNELS 3 Xrotation Yrotation Zrotation
										JOINT RightHandRing3
										{
											OFFSET -3.324348 0.000000 0.000000
											CHANNELS 3 Xrotation Yrotation Zrotation
											End Site
											{
												OFFSET 0.861900 3.184998 0.405154
											}
										}
									}
								}
								JOINT RightHandPinky1
								{
									OFFSET -13.131393 -0.168503 -5.746925
									CHANNELS 3 Xrotation Yrotation Zrotation
									JOINT RightHandPinky2
									{
										OFFSET -2.849182 0.000000 0.000000
										CHANNELS 3 Xrotation Yrotation Zrotation
										JOINT RightHandPinky3
										{
											OFFSET -2.805038 0.000000 0.000000
											CHANNELS 3 Xrotation Yrotation Zrotation
											End Site
											{
												OFFSET 0.882500 2.642609 0.325652
											}
										}
									}
								}
							}
							JOINT Right_Sleeve
							{
								OFFSET -6.592125 -0.646545 0.805568
								CHANNELS 3 Xrotation Yrotation Zrotation
								End Site
								{
									OFFSET 0.000179 20.275787 -0.000000
								}
							}
						}
					}
				}
				JOINT Bind_Right_JacketString
				{
					OFFSET -3.534800 11.969597 7.200700
					CHANNELS 3 Xrotation Yrotation Zrotation
					JOINT Bind_Right_JacketString1
					{
						OFFSET -0.319900 -6.102600 2.794100
						CHANNELS 3 Xrotation Yrotation Zrotation
						End Site
						{
							OFFSET 0.000000 6.719452 0.000000
						}
					}
				}
				JOINT Bind_Left_JacketString
				{
					OFFSET 2.904800 11.969597 7.200700
					CHANNELS 3 Xrotation Yrotation Zrotation
					JOINT Bind_Left_JacketString1
					{
						OFFSET 0.364800 -5.904503 3.186800
						CHANNELS 3 Xrotation Yrotation Zrotation
						End Site
						{
							OFFSET 0.000000 6.719513 0.000000
						}
					}
				}
				JOINT HairE
				{
					OFFSET 5.915200 17.612701 -11.592200
					CHANNELS 3 Xrotation Yrotation Zrotation
					JOINT HairE1
					{
						OFFSET 0.289200 -7.171898 -1.284500
						CHANNELS 3 Xrotation Yrotation Zrotation
						End Site
						{
							OFFSET 0.000000 7.291756 0.000000
						}
					}
				}
				JOINT HairF
				{
					OFFSET -0.864800 17.612701 -11.592200
					CHANNELS 3 Xrotation Yrotation Zrotation
					JOINT HairF1
					{
						OFFSET 0.000000 -14.087097 -2.127501
						CHANNELS 3 Xrotation Yrotation Zrotation
						End Site
						{
							OFFSET 0.000000 14.246841 0.000000
						}
					}
				}
				JOINT HairG
				{
					OFFSET -8.087700 17.612701 -11.592200
					CHANNELS 3 Xrotation Yrotation Zrotation
					JOINT HairG1
					{
						OFFSET -0.293600 -6.081398 -0.910100
						CHANNELS 3 Xrotation Yrotation Zrotation
						End Site
						{
							OFFSET 0.000000 6.156120 0.000000
						}
					}
				}
			}
		}
	}
	JOINT Pouch
	{
		OFFSET 0.000000 4.394501 10.847300
		CHANNELS 3 Xrotation Yrotation Zrotation
		End Site
		{
			OFFSET 0.000000 21.880577 0.000000
		}
	}
	JOINT Bag
	{
		OFFSET -13.229000 4.813004 -0.593300
		CHANNELS 3 Xrotation Yrotation Zrotation
		End Site
		{
			OFFSET 0.000000 21.880577 0.000000
		}
	}
	JOINT OccupyGuyFacialAnim_Joint
	{
		OFFSET 1.000000 -70.206398 -1.655000
		CHANNELS 3 Xrotation Yrotation Zrotation
		End Site
		{
			OFFSET 0.000000 21.880577 0.000000
		}
	}
}
MOTION
Frames: 4
Frame Time: 0.016667
-3.517715 66.595474 12.740753 -3.719844 -9.798395 -1.164747 -0.000000 -0.000000 -0.000000 -25.662093 -3.379078 2.156292 42.429832 -3.295308 -2.448954 -13.202124 -6.295080 0.129666 -0.000000 -0.000002 0.000000 0.000001 -0.000000 0.000001 -18.631448 3.618803 -1.313115 45.860971 9.779060 -3.794461 -24.002489 4.015963 0.593447 -0.000000 -0.000001 -0.000000 -0.000001 0.000001 0.000000 5.734629 1.061168 -0.471123 4.739111 -0.064816 0.012273 10.292016 26.036294 -3.377462 3.202047 7.206164 0.255005 3.577865 59.991628 -6.564248 -0.000000 -0.000000 -0.000001 -0.000000 -0.000000 -0.000001 -0.000000 -0.000000 -0.000002 -0.000000 -0.000000 -0.000001 -0.000000 -0.000000 0.000000 -0.000000 -0.000000 -0.000001 -0.000000 -0.000000 0.000000 -0.000000 -0.000000 -0.000001 -0.000000 -0.000000 -0.000001 8.936041 -24.743274 -2.968063 -31.852847 14.094149 -57.493630 -91.088639 12.820006 -86.878586 -27.577451 -4.331888 -2.991478 0.699119 9.503383 -2.418118 5.975204 12.647537 1.348333 -0.000000 0.000001 0.000000 9.479720 -1.289757 -20.785567 0.709480 2.796399 -28.467088 -0.000001 0.000001 0.000000 10.058165 -1.800598 -20.644715 1.774267 4.200474 -45.782075 -0.000000 -0.000000 -0.000001 1.254224 -0.073725 -17.945776 3.754099 5.463654 -68.965294 0.000000 0.000001 -0.000001 -7.938250 1.609093 -6.495676 2.210570 4.583641 -51.475150 -0.000001 0.000000 0.000001 -0.000000 -0.000002 0.000000 10.514881 19.496054 -2.041464 -4.648009 40.347792 49.038965 77.661812 115.432629 -92.279346 -10.082961 20.006795 14.104943 13.942498 -4.273701 -5.300358 7.113166 -20.767450 -2.619503 -0.000001 0.000000 0.000002 0.357760 -5.832708 5.175838 0.094353 -0.933669 11.539922 0.000000 0.000000 -0.000001 3.764074 -12.080464 1.143776 5.714281 -4.535834 103.133548 0.000001 0.000000 0.000001 -12.155602 -12.623917 9.228348 6.566867 -4.248483 114.232339 0.000000 0.000001 -0.000003 -17.635765 -10.496878 3.325420 4.993646 -4.645048 94.147942 -0.000001 0.000001 -0.000003 0.000000 0.000000 -0.000001 -0.000001 -0.000000 -0.000000 0.000001 0.000001 -0.000000 -0.000001 -0.000000 -0.000000 -0.000001 -0.000000 -0.000000 -0.000001 -0.000000 -0.000000 0.000001 0.000001 -0.000000 -0.000001 -0.000000 -0.000000 -0.000001 -0.000000 -0.000000 -0.000001 -0.000000 -0.000000 0.000001 0.000001 -0.000000 -0.000000 -0.000000 -0.000000 -0.000000 -0.000000 -0.000000 -0.000000 -0.000000 -0.000000 
-4.088366 66.770988 12.718960 -3.620355 -8.341056 -1.055234 0.000000 -0.000000 -0.000000 -25.298664 -4.380808 2.189888 41.313577 -3.987502 -2.348501 -12.654257 -6.137214 -0.350082 0.000000 0.000000 -0.000000 0.000002 -0.000001 -0.000000 -18.121672 2.749277 -1.340867 45.006329 9.159587 -3.206703 -23.637977 4.178351 0.228793 -0.000000 0.000000 0.000000 -0.000001 0.000000 -0.000000 5.733350 1.087646 -0.499083 4.739294 -0.071923 0.012347 10.288210 26.012975 -3.374271 3.194707 7.149673 0.254699 3.360328 59.445991 -6.494800 0.000000 0.000000 0.000001 0.000000 0.000000 0.000001 0.000000 0.000000 0.000001 0.000000 0.000000 -0.000000 -0.000000 -0.000000 -0.000000 0.000000 0.000000 -0.000000 -0.000000 -0.000000 -0.000000 0.000000 0.000000 0.000001 0.000000 0.000000 0.000001 8.936007 -24.743267 -2.968078 -31.749660 14.370499 -57.487872 -91.150206 12.779868 -87.127969 -27.586010 -4.098544 -2.879874 0.699116 9.503384 -2.418118 5.975199 12.647534 1.348333 -0.000000 0.000001 -0.000001 9.479720 -1.289759 -20.785562 0.709478 2.796397 -28.467091 -0.000000 -0.000001 0.000001 10.058161 -1.800597 -20.644713 1.774266 4.200474 -45.782068 -0.000000 0.000001 -0.000003 1.254223 -0.073724 -17.945777 3.754102 5.463651 -68.965294 -0.000001 -0.000002 0.000002 -7.938252 1.609092 -6.495672 2.210568 4.583645 -51.475154 -0.000001 -0.000002 -0.000001 -0.000001 -0.000002 0.000000 10.514950 19.487732 -2.039798 -4.646377 40.614695 49.167465 77.464823 115.453666 -92.137326 -9.777769 20.005583 13.914321 13.942498 -4.273698 -5.300355 7.113169 -20.767451 -2.619500 0.000001 -0.000001 0.000001 0.357761 -5.832709 5.175838 0.094351 -0.933669 11.539918 -0.000001 -0.000001 0.000000 3.764075 -12.080463 1.143777 5.714281 -4.535834 103.133555 0.000001 0.000001 0.000001 -12.155598 -12.623914 9.228345 6.566865 -4.248483 114.232339 0.000000 0.000001 -0.000002 -17.635765 -10.496877 3.325423 4.993645 -4.645045 94.147942 -0.000001 -0.000001 0.000000 0.000000 -0.000000 0.000001 0.000001 0.000001 -0.000000 0.000001 -0.000002 0.000000 0.000001 0.000001 -0.000000 0.000001 0.000001 -0.000000 0.000001 0.000001 -0.000000 0.000001 -0.000002 0.000000 0.000001 0.000001 -0.000000 0.000001 0.000001 -0.000000 0.000001 0.000001 -0.000000 0.000001 -0.000002 0.000000 0.000000 -0.000000 -0.000000 0.000000 -0.000000 -0.000000 0.000000 -0.000000 -0.000000 
-4.641057 66.932922 12.661491 -3.525415 -6.784712 -0.935619 -0.000000 -0.000000 0.000000 -24.995053 -5.369498 2.208068 40.144468 -4.972361 -2.263393 -12.012887 -5.789764 -0.755919 0.000000 0.000000 -0.000000 -0.000000 0.000000 -0.000000 -17.655114 1.839229 -1.339471 44.297373 8.422861 -2.694497 -23.381215 4.327364 -0.245298 -0.000000 -0.000001 0.000000 -0.000000 0.000001 -0.000000 5.726530 1.110187 -0.525143 4.738549 -0.077031 0.013274 10.277608 25.957787 -3.363606 3.181539 7.089883 0.250239 3.168562 58.869141 -6.463697 -0.000000 0.000000 -0.000000 -0.000000 0.000000 -0.000000 -0.000000 0.000000 -0.000001 -0.000000 0.000000 -0.000000 -0.000000 0.000000 -0.000000 -0.000000 0.000000 -0.000000 -0.000000 0.000000 -0.000000 -0.000000 0.000000 -0.000000 -0.000000 0.000000 -0.000000 8.936021 -24.743207 -2.968082 -31.626491 14.382071 -57.607871 -91.448699 12.659250 -87.264935 -27.549389 -3.888661 -2.758379 0.699119 9.503386 -2.418117 5.975202 12.647534 1.348332 0.000001 0.000001 -0.000000 9.479718 -1.289759 -20.785567 0.709478 2.796399 -28.467086 0.000002 0.000002 0.000002 10.058160 -1.800599 -20.644718 1.774265 4.200476 -45.782075 0.000000 -0.000001 -0.000003 1.254222 -0.073724 -17.945774 3.754101 5.463651 -68.965294 -0.000002 -0.000002 -0.000001 -7.938246 1.609089 -6.495673 2.210569 4.583643 -51.475157 0.000002 0.000000 -0.000002 0.000000 -0.000001 0.000001 10.515030 19.480673 -2.038385 -4.644161 40.827432 49.316534 77.224291 115.480167 -92.086181 -9.525331 19.966337 13.905994 13.942499 -4.273702 -5.300355 7.113167 -20.767450 -2.619497 -0.000000 -0.000001 0.000000 0.357761 -5.832712 5.175836 0.094351 -0.933669 11.539916 -0.000001 -0.000001 -0.000002 3.764074 -12.080464 1.143776 5.714280 -4.535835 103.133555 0.000001 0.000001 -0.000002 -12.155601 -12.623917 9.228346 6.566867 -4.248483 114.232339 0.000000 0.000001 -0.000002 -17.635762 -10.496880 3.325419 4.993649 -4.645047 94.147942 0.000000 0.000002 0.000001 0.000000 -0.000000 0.000001 0.000000 -0.000000 -0.000000 0.000000 0.000000 -0.000000 0.000000 -0.000000 -0.000000 0.000000 -0.000000 -0.000000 0.000000 -0.000000 -0.000000 0.000000 0.000000 -0.000000 0.000000 -0.000000 -0.000000 0.000000 -0.000000 -0.000000 0.000000 -0.000000 -0.000000 0.000000 0.000000 -0.000000 -0.000000 -0.000000 0.000000 -0.000000 -0.000000 0.000000 -0.000000 -0.000000 0.000000 
-5.150371 67.069542 12.546992 -3.434720 -5.090596 -0.806735 0.000000 0.000000 0.000000 -24.843042 -6.089043 2.220535 39.212809 -3.615813 -2.182572 -11.370916 -6.366651 -1.624632 0.000000 0.000002 -0.000000 0.000000 0.000000 -0.000000 -17.294637 0.896304 -1.322140 43.771421 7.511181 -2.285788 -23.219187 4.454827 -0.724867 0.000000 -0.000000 -0.000000 -0.000000 -0.000000 -0.000001 5.712058 1.129950 -0.550429 4.738978 -0.070926 0.012768 10.249798 25.856279 -3.366811 3.164826 7.027058 0.241468 2.845033 57.878722 -6.391083 0.000000 0.000000 0.000001 0.000000 0.000000 0.000001 0.000000 0.000000 0.000000 0.000000 0.000000 0.000000 -0.000000 -0.000000 0.000000 0.000000 0.000000 0.000000 -0.000000 -0.000000 0.000000 0.000000 0.000000 0.000001 0.000000 0.000000 0.000001 8.936048 -24.743241 -2.968070 -31.289414 14.458617 -57.880287 -91.904369 12.475320 -87.595469 -27.473748 -3.547122 -2.576797 0.699117 9.503382 -2.418116 5.975202 12.647537 1.348333 -0.000000 0.000001 0.000000 9.479719 -1.289756 -20.785563 0.709476 2.796399 -28.467088 0.000003 0.000002 0.000007 10.058160 -1.800600 -20.644713 1.774263 4.200482 -45.782072 -0.000002 0.000001 -0.000001 1.254223 -0.073724 -17.945772 3.754101 5.463651 -68.965294 -0.000000 -0.000002 -0.000001 -7.938247 1.609090 -6.495673 2.210571 4.583646 -51.475154 -0.000001 -0.000002 -0.000003 -0.000001 -0.000002 0.000000 10.514843 19.501179 -2.042496 -4.444152 41.110755 49.507513 76.555629 115.556036 -91.692496 -9.035345 19.920040 13.815825 13.942498 -4.273699 -5.300357 7.113168 -20.767455 -2.619499 0.000001 -0.000001 0.000002 0.357761 -5.832709 5.175834 0.094351 -0.933671 11.539920 0.000000 -0.000000 0.000000 3.764073 -12.080464 1.143777 5.714282 -4.535833 103.133548 0.000000 -0.000001 -0.000003 -12.155597 -12.623913 9.228347 6.566867 -4.248484 114.232339 -0.000000 0.000003 -0.000002 -17.635762 -10.496878 3.325420 4.993648 -4.645046 94.147942 -0.000002 -0.000001 0.000002 0.000000 0.000000 -0.000001 0.000001 0.000002 -0.000001 0.000001 0.000001 -0.000000 0.000001 0.000002 -0.000001 0.000001 0.000002 -0.000001 0.000001 0.000002 -0.000001 0.000001 0.000001 -0.000000 0.000001 0.000002 -0.000001 0.000001 0.000002 -0.000001 0.000001 0.000002 -0.000001 0.000001 0.000001 -0.000000 0.000000 0.000000 0.000000 0.000000 0.000000 0.000000 0.000000 0.000000 0.000000 
